<svg width="20" height="20" viewBox="0 0 20 20" fill="none" xmlns="http://www.w3.org/2000/svg">
<g clip-path="url(#clip0)">
<path d="M14.1666 17.5001V15.8334C14.1666 14.9494 13.8154 14.1015 13.1903 13.4764C12.5652 12.8513 11.7173 12.5001 10.8333 12.5001H4.16659C3.28253 12.5001 2.43468 12.8513 1.80956 13.4764C1.18444 14.1015 0.833252 14.9494 0.833252 15.8334V17.5001" stroke="#FAFAFA" stroke-width="2" stroke-linecap="round" stroke-linejoin="round"/>
<path d="M7.50008 9.16674C9.34103 9.16674 10.8334 7.67436 10.8334 5.83341C10.8334 3.99246 9.34103 2.50008 7.50008 2.50008C5.65913 2.50008 4.16675 3.99246 4.16675 5.83341C4.16675 7.67436 5.65913 9.16674 7.50008 9.16674Z" stroke="#FAFAFA" stroke-width="2" stroke-linecap="round" stroke-linejoin="round"/>
<path d="M19.1667 17.5001V15.8334C19.1662 15.0949 18.9204 14.3774 18.4679 13.7937C18.0154 13.21 17.3819 12.7931 16.6667 12.6084" stroke="#FAFAFA" stroke-width="2" stroke-linecap="round" stroke-linejoin="round"/>
<path d="M13.3333 2.60841C14.0503 2.792 14.6858 3.209 15.1396 3.79367C15.5935 4.37835 15.8398 5.09744 15.8398 5.83758C15.8398 6.57772 15.5935 7.29681 15.1396 7.88149C14.6858 8.46616 14.0503 8.88316 13.3333 9.06675" stroke="#FAFAFA" stroke-width="2" stroke-linecap="round" stroke-linejoin="round"/>
</g>
<defs>
<clipPath id="clip0">
<rect width="20" height="20" fill="white"/>
</clipPath>
</defs>
</svg>
